<svg width="697" height="92" viewBox="0 0 697 92" fill="none" xmlns="http://www.w3.org/2000/svg">
<path d="M76.31 51.57C67.73 51.57 60.45 51.57 54.47 51.57C48.5767 51.57 43.68 51.57 39.78 51.57C35.88 51.57 32.8467 51.57 30.68 51.57C28.5133 51.4833 26.91 51.44 25.87 51.44C24.83 51.44 24.1367 51.44 23.79 51.44C23.53 51.44 23.3567 51.44 23.27 51.44H23.01C19.7167 51.18 16.6833 50.3567 13.91 48.97C11.1367 47.4967 8.71 45.6333 6.63 43.38C4.55 41.1267 2.90333 38.5267 1.69 35.58C0.563333 32.6333 0 29.5133 0 26.22C0 22.7533 0.65 19.46 1.95 16.34C3.33667 13.22 5.15667 10.5333 7.41 8.27999C9.66333 6.02666 12.3067 4.25 15.34 2.94999C18.46 1.56333 21.7967 0.869995 25.35 0.869995H79.95C82.6367 0.869995 85.1933 1.39 87.62 2.43C90.0467 3.47 92.1267 4.9 93.86 6.72C95.68 8.45333 97.11 10.5333 98.15 12.96C99.19 15.3867 99.71 17.9867 99.71 20.76V31.29H25.74H25.61H25.48C24.0067 31.2033 22.7933 30.6833 21.84 29.73C20.9733 28.7767 20.54 27.6067 20.54 26.22C20.54 24.8333 20.9733 23.6633 21.84 22.71C22.7933 21.7567 23.9633 21.2367 25.35 21.15H89.57V20.89C89.57 18.1167 88.6167 15.7767 86.71 13.87C84.8033 11.9633 82.4633 11.01 79.69 11.01H25.35C23.27 11.01 21.2767 11.4 19.37 12.18C17.55 12.96 15.9467 14.0433 14.56 15.43C13.26 16.8167 12.1767 18.4633 11.31 20.37C10.53 22.19 10.14 24.14 10.14 26.22C10.14 30.12 11.3967 33.5 13.91 36.36C16.51 39.1333 19.6733 40.78 23.4 41.3C32.0667 41.3 39.3467 41.3 45.24 41.3C51.22 41.3 56.16 41.3 60.06 41.3C63.96 41.3 66.9933 41.3433 69.16 41.43C71.3267 41.43 72.93 41.43 73.97 41.43C75.0967 41.43 75.79 41.43 76.05 41.43C76.31 41.43 76.5267 41.43 76.7 41.43C79.9067 41.69 82.8967 42.5567 85.67 44.03C88.53 45.4167 91 47.28 93.08 49.62C95.16 51.8733 96.7633 54.4733 97.89 57.42C99.1033 60.3667 99.71 63.4433 99.71 66.65C99.71 70.2033 99.0167 73.54 97.63 76.66C96.33 79.6933 94.5533 82.3367 92.3 84.59C90.0467 86.8433 87.36 88.6633 84.24 90.05C81.2067 91.35 77.9567 92 74.49 92H19.76C16.9867 92 14.3867 91.48 11.96 90.44C9.62 89.4 7.54 88.0133 5.72 86.28C3.98667 84.46 2.6 82.38 1.56 80.04C0.52 77.6133 0 75.0133 0 72.24V61.58H74.49C76.05 61.6667 77.22 62.23 78 63.27C78.8667 64.31 79.3 65.4367 79.3 66.65C79.3 67.8633 78.8667 68.99 78 70.03C77.22 71.07 76.05 71.6333 74.49 71.72H10.14V71.98C10.14 74.7533 11.0933 77.0933 13 79C14.9067 80.9067 17.2467 81.86 20.02 81.86H74.49C76.57 81.86 78.52 81.47 80.34 80.69C82.16 79.91 83.7633 78.87 85.15 77.57C86.5367 76.1833 87.62 74.58 88.4 72.76C89.2667 70.8533 89.7 68.8167 89.7 66.65C89.7 64.7433 89.3533 62.9233 88.66 61.19C87.9667 59.4567 87.0133 57.94 85.8 56.64C84.5867 55.2533 83.1567 54.1267 81.51 53.26C79.95 52.3933 78.2167 51.83 76.31 51.57ZM217.389 31.29H148.359V41.43H199.579V51.57H138.219V21.15H207.249V11.01H128.079V81.86H207.249V71.72H138.219V61.58H217.389V92H117.939V0.869995H217.389V31.29ZM335.205 41.3V92H279.175C273.108 91.74 267.432 90.3967 262.145 87.97C256.858 85.4567 252.222 82.1633 248.235 78.09C244.335 73.93 241.258 69.1633 239.005 63.79C236.752 58.4167 235.625 52.6533 235.625 46.5C235.625 40.3467 236.752 34.5833 239.005 29.21C241.258 23.75 244.335 18.9833 248.235 14.91C252.222 10.75 256.858 7.45666 262.145 5.03C267.432 2.51666 273.108 1.13 279.175 0.869995H335.205V31.42H279.175C275.275 31.7667 272.025 33.37 269.425 36.23C266.912 39.09 265.655 42.47 265.655 46.37C265.655 50.3567 266.912 53.78 269.425 56.64C272.025 59.4133 275.275 61.06 279.175 61.58H314.795V71.72H279.175C275.882 71.46 272.805 70.6367 269.945 69.25C267.085 67.8633 264.572 66.0433 262.405 63.79C260.325 61.45 258.678 58.8067 257.465 55.86C256.252 52.9133 255.645 49.75 255.645 46.37C255.645 43.1633 256.208 40.0867 257.335 37.14C258.548 34.1933 260.195 31.5933 262.275 29.34C264.355 27 266.782 25.1367 269.555 23.75C272.328 22.2767 275.362 21.41 278.655 21.15H324.935V11.01H279.175C274.495 11.27 270.118 12.3967 266.045 14.39C262.058 16.2967 258.548 18.8533 255.515 22.06C252.482 25.2667 250.098 28.95 248.365 33.11C246.632 37.27 245.765 41.7333 245.765 46.5C245.765 51.18 246.632 55.6433 248.365 59.89C250.098 64.05 252.482 67.7333 255.515 70.94C258.548 74.06 262.058 76.6167 266.045 78.61C270.118 80.5167 274.495 81.6 279.175 81.86H324.935V51.44H276.965V41.3H335.205ZM452.108 42.73C452.108 49.49 450.808 55.86 448.208 61.84C445.608 67.82 442.054 73.0633 437.548 77.57C433.128 81.99 427.928 85.5 421.948 88.1C415.968 90.7 409.554 92 402.708 92C396.034 92 389.751 90.7867 383.858 88.36C377.964 85.8467 372.808 82.4667 368.388 78.22C363.968 73.8867 360.414 68.86 357.727 63.14C355.127 57.3333 353.698 51.0933 353.438 44.42V0.869995H383.208V42.73C383.208 45.4167 383.728 47.9733 384.768 50.4C385.808 52.74 387.194 54.7767 388.928 56.51C390.661 58.2433 392.698 59.63 395.038 60.67C397.464 61.71 400.021 62.23 402.708 62.23C405.394 62.23 407.908 61.7533 410.248 60.8C412.588 59.76 414.624 58.4167 416.358 56.77C418.091 55.0367 419.478 53 420.518 50.66C421.558 48.32 422.121 45.85 422.208 43.25V0.869995H432.088V42.73C432.088 46.8033 431.308 50.6167 429.748 54.17C428.274 57.7233 426.194 60.8433 423.508 63.53C420.821 66.13 417.701 68.21 414.148 69.77C410.594 71.33 406.781 72.11 402.708 72.11C398.721 72.11 394.951 71.3733 391.398 69.9C387.844 68.34 384.724 66.26 382.038 63.66C379.438 60.9733 377.358 57.8967 375.798 54.43C374.238 50.8767 373.458 47.0633 373.458 42.99H373.328V10.88H363.578V43.38C363.664 48.7533 364.748 53.78 366.828 58.46C368.908 63.0533 371.724 67.1267 375.278 70.68C378.831 74.1467 382.948 76.8767 387.628 78.87C392.308 80.8633 397.334 81.86 402.708 81.86C408.168 81.86 413.238 80.8633 417.918 78.87C422.684 76.79 426.844 73.9733 430.398 70.42C433.951 66.8667 436.724 62.7067 438.718 57.94C440.798 53.1733 441.838 48.1033 441.838 42.73V0.869995H452.108V42.73ZM535.231 92L523.401 71.59H500.651V92H470.361V41.3L544.721 41.43C546.801 41.43 548.751 41.04 550.571 40.26C552.478 39.3933 554.125 38.31 555.511 37.01C556.898 35.6233 557.981 34.02 558.761 32.2C559.541 30.2933 559.931 28.3 559.931 26.22C559.931 24.14 559.541 22.19 558.761 20.37C557.981 18.4633 556.898 16.8167 555.511 15.43C554.125 14.0433 552.478 12.96 550.571 12.18C548.751 11.4 546.801 11.01 544.721 11.01H480.501V21.15H544.721C546.108 21.2367 547.235 21.7567 548.101 22.71C549.055 23.6633 549.531 24.8333 549.531 26.22C549.531 27.6067 549.055 28.7767 548.101 29.73C547.235 30.6833 546.108 31.2033 544.721 31.29H544.591H544.461H470.361V0.869995H544.721C548.188 0.869995 551.481 1.56333 554.601 2.94999C557.721 4.25 560.408 6.02666 562.661 8.27999C564.915 10.5333 566.691 13.22 567.991 16.34C569.378 19.46 570.071 22.7533 570.071 26.22C570.071 29.6867 569.378 32.98 567.991 36.1C566.691 39.1333 564.915 41.82 562.661 44.16C560.408 46.4133 557.721 48.2333 554.601 49.62C551.481 50.92 548.188 51.57 544.721 51.57L480.501 51.44V81.86H490.641V61.45H529.251C530.291 63.3567 531.461 65.4367 532.761 67.69C534.061 69.8567 535.275 71.98 536.401 74.06C537.615 76.0533 538.655 77.7867 539.521 79.26C540.388 80.6467 540.908 81.5133 541.081 81.86H552.781C552.521 81.5133 551.958 80.6467 551.091 79.26C550.311 77.8733 549.358 76.2267 548.231 74.32C547.191 72.3267 546.021 70.2033 544.721 67.95C543.421 65.6967 542.165 63.53 540.951 61.45H552.651C554.818 65.1767 556.941 68.86 559.021 72.5C561.101 76.14 563.008 79.39 564.741 82.25L570.331 92H535.231ZM649.103 51.44L666.783 81.86H678.483C678.05 81.1667 677.053 79.5633 675.493 77.05C674.02 74.45 672.243 71.3733 670.163 67.82C668.083 64.2667 665.873 60.54 663.533 56.64C661.28 52.6533 659.113 48.8833 657.033 45.33C655.04 41.7767 653.307 38.7433 651.833 36.23C650.36 33.63 649.45 31.9833 649.103 31.29L623.623 75.49L614.133 92H579.033C579.553 91.22 580.68 89.3133 582.413 86.28C584.147 83.16 586.27 79.39 588.783 74.97C591.383 70.55 594.243 65.6533 597.363 60.28C600.483 54.82 603.603 49.36 606.723 43.9C610.45 37.4 614.35 30.5967 618.423 23.49C622.497 16.2967 626.873 8.75666 631.553 0.869995H643.253L619.073 42.73L596.583 81.86H608.283C612.27 74.84 615.953 68.4267 619.333 62.62C622.713 56.7267 625.963 51.05 629.083 45.59C632.29 40.13 635.497 34.6267 638.703 29.08C641.91 23.5333 645.377 17.51 649.103 11.01C649.19 11.1833 649.927 12.4833 651.313 14.91C652.787 17.3367 654.607 20.4567 656.773 24.27C659.027 28.0833 661.54 32.4167 664.313 37.27C667.087 42.1233 669.903 47.0633 672.763 52.09C675.71 57.03 678.57 61.9267 681.343 66.78C684.117 71.5467 686.587 75.7933 688.753 79.52C690.92 83.2467 692.653 86.28 693.953 88.62C695.34 90.8733 696.033 92 696.033 92H660.933L643.253 61.58L649.103 51.44Z" fill="#F6F6F6"/>
</svg>
