<svg width="550" height="165" viewBox="0 0 550 165" fill="none" xmlns="http://www.w3.org/2000/svg">
<path d="M58.7 133.9C52.1 133.9 46.5 133.9 41.9 133.9C37.3667 133.9 33.6 133.9 30.6 133.9C27.6 133.9 25.2667 133.9 23.6 133.9C21.9333 133.833 20.7 133.8 19.9 133.8C19.1 133.8 18.5667 133.8 18.3 133.8C18.1 133.8 17.9667 133.8 17.9 133.8H17.7C15.1667 133.6 12.8333 132.967 10.7 131.9C8.56667 130.767 6.7 129.333 5.1 127.6C3.5 125.867 2.23333 123.867 1.3 121.6C0.433333 119.333 0 116.933 0 114.4C0 111.733 0.5 109.2 1.5 106.8C2.56667 104.4 3.96667 102.333 5.7 100.6C7.43333 98.8667 9.46667 97.5 11.8 96.5C14.2 95.4333 16.7667 94.9 19.5 94.9H61.5C63.5667 94.9 65.5333 95.3 67.4 96.1C69.2667 96.9 70.8667 98 72.2 99.4C73.6 100.733 74.7 102.333 75.5 104.2C76.3 106.067 76.7 108.067 76.7 110.2V118.3H19.8H19.7H19.6C18.4667 118.233 17.5333 117.833 16.8 117.1C16.1333 116.367 15.8 115.467 15.8 114.4C15.8 113.333 16.1333 112.433 16.8 111.7C17.5333 110.967 18.4333 110.567 19.5 110.5H68.9V110.3C68.9 108.167 68.1667 106.367 66.7 104.9C65.2333 103.433 63.4333 102.7 61.3 102.7H19.5C17.9 102.7 16.3667 103 14.9 103.6C13.5 104.2 12.2667 105.033 11.2 106.1C10.2 107.167 9.36667 108.433 8.7 109.9C8.1 111.3 7.8 112.8 7.8 114.4C7.8 117.4 8.76667 120 10.7 122.2C12.7 124.333 15.1333 125.6 18 126C24.6667 126 30.2667 126 34.8 126C39.4 126 43.2 126 46.2 126C49.2 126 51.5333 126.033 53.2 126.1C54.8667 126.1 56.1 126.1 56.9 126.1C57.7667 126.1 58.3 126.1 58.5 126.1C58.7 126.1 58.8667 126.1 59 126.1C61.4667 126.3 63.7667 126.967 65.9 128.1C68.1 129.167 70 130.6 71.6 132.4C73.2 134.133 74.4333 136.133 75.3 138.4C76.2333 140.667 76.7 143.033 76.7 145.5C76.7 148.233 76.1667 150.8 75.1 153.2C74.1 155.533 72.7333 157.567 71 159.3C69.2667 161.033 67.2 162.433 64.8 163.5C62.4667 164.5 59.9667 165 57.3 165H15.2C13.0667 165 11.0667 164.6 9.2 163.8C7.4 163 5.8 161.933 4.4 160.6C3.06667 159.2 2 157.6 1.2 155.8C0.4 153.933 0 151.933 0 149.8V141.6H57.3C58.5 141.667 59.4 142.1 60 142.9C60.6667 143.7 61 144.567 61 145.5C61 146.433 60.6667 147.3 60 148.1C59.4 148.9 58.5 149.333 57.3 149.4H7.8V149.6C7.8 151.733 8.53333 153.533 10 155C11.4667 156.467 13.2667 157.2 15.4 157.2H57.3C58.9 157.2 60.4 156.9 61.8 156.3C63.2 155.7 64.4333 154.9 65.5 153.9C66.5667 152.833 67.4 151.6 68 150.2C68.6667 148.733 69 147.167 69 145.5C69 144.033 68.7333 142.633 68.2 141.3C67.6667 139.967 66.9333 138.8 66 137.8C65.0667 136.733 63.9667 135.867 62.7 135.2C61.5 134.533 60.1667 134.1 58.7 133.9ZM167.223 118.3H114.123V126.1H153.523V133.9H106.323V110.5H159.423V102.7H98.5227V157.2H159.423V149.4H106.323V141.6H167.223V165H90.7227V94.9H167.223V118.3ZM257.85 126V165H214.75C210.083 164.8 205.717 163.767 201.65 161.9C197.583 159.967 194.017 157.433 190.95 154.3C187.95 151.1 185.583 147.433 183.85 143.3C182.117 139.167 181.25 134.733 181.25 130C181.25 125.267 182.117 120.833 183.85 116.7C185.583 112.5 187.95 108.833 190.95 105.7C194.017 102.5 197.583 99.9667 201.65 98.1C205.717 96.1667 210.083 95.1 214.75 94.9H257.85V118.4H214.75C211.75 118.667 209.25 119.9 207.25 122.1C205.317 124.3 204.35 126.9 204.35 129.9C204.35 132.967 205.317 135.6 207.25 137.8C209.25 139.933 211.75 141.2 214.75 141.6H242.15V149.4H214.75C212.217 149.2 209.85 148.567 207.65 147.5C205.45 146.433 203.517 145.033 201.85 143.3C200.25 141.5 198.983 139.467 198.05 137.2C197.117 134.933 196.65 132.5 196.65 129.9C196.65 127.433 197.083 125.067 197.95 122.8C198.883 120.533 200.15 118.533 201.75 116.8C203.35 115 205.217 113.567 207.35 112.5C209.483 111.367 211.817 110.7 214.35 110.5H249.95V102.7H214.75C211.15 102.9 207.783 103.767 204.65 105.3C201.583 106.767 198.883 108.733 196.55 111.2C194.217 113.667 192.383 116.5 191.05 119.7C189.717 122.9 189.05 126.333 189.05 130C189.05 133.6 189.717 137.033 191.05 140.3C192.383 143.5 194.217 146.333 196.55 148.8C198.883 151.2 201.583 153.167 204.65 154.7C207.783 156.167 211.15 157 214.75 157.2H249.95V133.8H213.05V126H257.85ZM347.775 127.1C347.775 132.3 346.775 137.2 344.775 141.8C342.775 146.4 340.042 150.433 336.575 153.9C333.175 157.3 329.175 160 324.575 162C319.975 164 315.042 165 309.775 165C304.642 165 299.808 164.067 295.275 162.2C290.742 160.267 286.775 157.667 283.375 154.4C279.975 151.067 277.242 147.2 275.175 142.8C273.175 138.333 272.075 133.533 271.875 128.4V94.9H294.775V127.1C294.775 129.167 295.175 131.133 295.975 133C296.775 134.8 297.842 136.367 299.175 137.7C300.508 139.033 302.075 140.1 303.875 140.9C305.742 141.7 307.708 142.1 309.775 142.1C311.842 142.1 313.775 141.733 315.575 141C317.375 140.2 318.942 139.167 320.275 137.9C321.608 136.567 322.675 135 323.475 133.2C324.275 131.4 324.708 129.5 324.775 127.5V94.9H332.375V127.1C332.375 130.233 331.775 133.167 330.575 135.9C329.442 138.633 327.842 141.033 325.775 143.1C323.708 145.1 321.308 146.7 318.575 147.9C315.842 149.1 312.908 149.7 309.775 149.7C306.708 149.7 303.808 149.133 301.075 148C298.342 146.8 295.942 145.2 293.875 143.2C291.875 141.133 290.275 138.767 289.075 136.1C287.875 133.367 287.275 130.433 287.275 127.3H287.175V102.6H279.675V127.6C279.742 131.733 280.575 135.6 282.175 139.2C283.775 142.733 285.942 145.867 288.675 148.6C291.408 151.267 294.575 153.367 298.175 154.9C301.775 156.433 305.642 157.2 309.775 157.2C313.975 157.2 317.875 156.433 321.475 154.9C325.142 153.3 328.342 151.133 331.075 148.4C333.808 145.667 335.942 142.467 337.475 138.8C339.075 135.133 339.875 131.233 339.875 127.1V94.9H347.775V127.1ZM411.716 165L402.616 149.3H385.116V165H361.816V126L419.016 126.1C420.616 126.1 422.116 125.8 423.516 125.2C424.983 124.533 426.25 123.7 427.316 122.7C428.383 121.633 429.216 120.4 429.816 119C430.416 117.533 430.716 116 430.716 114.4C430.716 112.8 430.416 111.3 429.816 109.9C429.216 108.433 428.383 107.167 427.316 106.1C426.25 105.033 424.983 104.2 423.516 103.6C422.116 103 420.616 102.7 419.016 102.7H369.616V110.5H419.016C420.083 110.567 420.95 110.967 421.616 111.7C422.35 112.433 422.716 113.333 422.716 114.4C422.716 115.467 422.35 116.367 421.616 117.1C420.95 117.833 420.083 118.233 419.016 118.3H418.916H418.816H361.816V94.9H419.016C421.683 94.9 424.216 95.4333 426.616 96.5C429.016 97.5 431.083 98.8667 432.816 100.6C434.55 102.333 435.916 104.4 436.916 106.8C437.983 109.2 438.516 111.733 438.516 114.4C438.516 117.067 437.983 119.6 436.916 122C435.916 124.333 434.55 126.4 432.816 128.2C431.083 129.933 429.016 131.333 426.616 132.4C424.216 133.4 421.683 133.9 419.016 133.9L369.616 133.8V157.2H377.416V141.5H407.116C407.916 142.967 408.816 144.567 409.816 146.3C410.816 147.967 411.75 149.6 412.616 151.2C413.55 152.733 414.35 154.067 415.016 155.2C415.683 156.267 416.083 156.933 416.216 157.2H425.216C425.016 156.933 424.583 156.267 423.916 155.2C423.316 154.133 422.583 152.867 421.716 151.4C420.916 149.867 420.016 148.233 419.016 146.5C418.016 144.767 417.05 143.1 416.116 141.5H425.116C426.783 144.367 428.416 147.2 430.016 150C431.616 152.8 433.083 155.3 434.416 157.5L438.716 165H411.716ZM499.31 133.8L512.91 157.2H521.91C521.577 156.667 520.81 155.433 519.61 153.5C518.477 151.5 517.11 149.133 515.51 146.4C513.91 143.667 512.21 140.8 510.41 137.8C508.677 134.733 507.01 131.833 505.41 129.1C503.877 126.367 502.543 124.033 501.41 122.1C500.277 120.1 499.577 118.833 499.31 118.3L479.71 152.3L472.41 165H445.41C445.81 164.4 446.677 162.933 448.01 160.6C449.343 158.2 450.977 155.3 452.91 151.9C454.91 148.5 457.11 144.733 459.51 140.6C461.91 136.4 464.31 132.2 466.71 128C469.577 123 472.577 117.767 475.71 112.3C478.843 106.767 482.21 100.967 485.81 94.9H494.81L476.21 127.1L458.91 157.2H467.91C470.977 151.8 473.81 146.867 476.41 142.4C479.01 137.867 481.51 133.5 483.91 129.3C486.377 125.1 488.843 120.867 491.31 116.6C493.777 112.333 496.443 107.7 499.31 102.7C499.377 102.833 499.943 103.833 501.01 105.7C502.143 107.567 503.543 109.967 505.21 112.9C506.943 115.833 508.877 119.167 511.01 122.9C513.143 126.633 515.31 130.433 517.51 134.3C519.777 138.1 521.977 141.867 524.11 145.6C526.243 149.267 528.143 152.533 529.81 155.4C531.477 158.267 532.81 160.6 533.81 162.4C534.877 164.133 535.41 165 535.41 165H508.41L494.81 141.6L499.31 133.8Z" fill="white"/>
<path d="M0 0.899997H76.5V24.3H57.7V16.5H68.7V8.7H7.8V16.5H34.4L34.3 63.2H42.1V16.5H49.9V71H26.5V24.3H0V0.899997ZM167.027 24.3H113.927V32.1H153.327V39.9H106.127V16.5H159.227V8.7H98.3273V63.2H159.227V55.4H106.127V47.6H167.027V71H90.5273V0.899997H167.027V24.3ZM250.655 0.899997H275.455V71H252.055V44.8L237.155 71H219.255L196.555 31.2V16.5L223.855 63.2H232.655L259.855 16.5V63.2H267.655V8.7H255.155L228.055 55.5L201.355 8.7H188.855V63.2H196.555V48.5L204.355 61.9V71H181.055V0.899997H205.855L228.255 40.6L250.655 0.899997ZM346.553 0.899997C349.22 0.899997 351.72 1.43333 354.053 2.49999C356.453 3.5 358.52 4.86666 360.253 6.59999C361.986 8.33333 363.353 10.4 364.353 12.8C365.42 15.2 365.953 17.7333 365.953 20.4C365.953 23.0667 365.42 25.6 364.353 28C363.353 30.3333 361.986 32.4 360.253 34.2C358.52 35.9333 356.453 37.3333 354.053 38.4C351.72 39.4 349.22 39.9 346.553 39.9L297.253 39.8V63.2H305.053V47.6H312.753V71H289.453V32L346.553 32.1C348.153 32.1 349.653 31.8 351.053 31.2C352.453 30.5333 353.686 29.7 354.753 28.7C355.82 27.6333 356.653 26.4 357.253 25C357.853 23.5333 358.153 22 358.153 20.4C358.153 18.8 357.853 17.3 357.253 15.9C356.653 14.4333 355.82 13.1667 354.753 12.1C353.686 11.0333 352.453 10.2 351.053 9.6C349.653 9 348.153 8.7 346.553 8.7H297.253V16.5H346.553C347.553 16.5667 348.42 16.9667 349.153 17.7C349.886 18.4333 350.253 19.3333 350.253 20.4C350.253 21.4667 349.886 22.3667 349.153 23.1C348.42 23.8333 347.486 24.2333 346.353 24.3H346.253H289.453V0.899997H346.553Z" fill="white"/>
</svg>
