<svg width="554" height="173" viewBox="0 0 554 173" fill="none" xmlns="http://www.w3.org/2000/svg">
<g filter="url(#filter0_d_35_3)">
<path d="M62.7 133.9C56.1 133.9 50.5 133.9 45.9 133.9C41.3667 133.9 37.6 133.9 34.6 133.9C31.6 133.9 29.2667 133.9 27.6 133.9C25.9333 133.833 24.7 133.8 23.9 133.8C23.1 133.8 22.5667 133.8 22.3 133.8C22.1 133.8 21.9667 133.8 21.9 133.8H21.7C19.1667 133.6 16.8333 132.967 14.7 131.9C12.5667 130.767 10.7 129.333 9.1 127.6C7.5 125.867 6.23333 123.867 5.3 121.6C4.43333 119.333 4 116.933 4 114.4C4 111.733 4.5 109.2 5.5 106.8C6.56667 104.4 7.96667 102.333 9.7 100.6C11.4333 98.8667 13.4667 97.5 15.8 96.5C18.2 95.4333 20.7667 94.9 23.5 94.9H65.5C67.5667 94.9 69.5333 95.3 71.4 96.1C73.2667 96.9 74.8667 98 76.2 99.4C77.6 100.733 78.7 102.333 79.5 104.2C80.3 106.067 80.7 108.067 80.7 110.2V118.3H23.8H23.7H23.6C22.4667 118.233 21.5333 117.833 20.8 117.1C20.1333 116.367 19.8 115.467 19.8 114.4C19.8 113.333 20.1333 112.433 20.8 111.7C21.5333 110.967 22.4333 110.567 23.5 110.5H72.9V110.3C72.9 108.167 72.1667 106.367 70.7 104.9C69.2333 103.433 67.4333 102.7 65.3 102.7H23.5C21.9 102.7 20.3667 103 18.9 103.6C17.5 104.2 16.2667 105.033 15.2 106.1C14.2 107.167 13.3667 108.433 12.7 109.9C12.1 111.3 11.8 112.8 11.8 114.4C11.8 117.4 12.7667 120 14.7 122.2C16.7 124.333 19.1333 125.6 22 126C28.6667 126 34.2667 126 38.8 126C43.4 126 47.2 126 50.2 126C53.2 126 55.5333 126.033 57.2 126.1C58.8667 126.1 60.1 126.1 60.9 126.1C61.7667 126.1 62.3 126.1 62.5 126.1C62.7 126.1 62.8667 126.1 63 126.1C65.4667 126.3 67.7667 126.967 69.9 128.1C72.1 129.167 74 130.6 75.6 132.4C77.2 134.133 78.4333 136.133 79.3 138.4C80.2333 140.667 80.7 143.033 80.7 145.5C80.7 148.233 80.1667 150.8 79.1 153.2C78.1 155.533 76.7333 157.567 75 159.3C73.2667 161.033 71.2 162.433 68.8 163.5C66.4667 164.5 63.9667 165 61.3 165H19.2C17.0667 165 15.0667 164.6 13.2 163.8C11.4 163 9.8 161.933 8.4 160.6C7.06667 159.2 6 157.6 5.2 155.8C4.4 153.933 4 151.933 4 149.8V141.6H61.3C62.5 141.667 63.4 142.1 64 142.9C64.6667 143.7 65 144.567 65 145.5C65 146.433 64.6667 147.3 64 148.1C63.4 148.9 62.5 149.333 61.3 149.4H11.8V149.6C11.8 151.733 12.5333 153.533 14 155C15.4667 156.467 17.2667 157.2 19.4 157.2H61.3C62.9 157.2 64.4 156.9 65.8 156.3C67.2 155.7 68.4333 154.9 69.5 153.9C70.5667 152.833 71.4 151.6 72 150.2C72.6667 148.733 73 147.167 73 145.5C73 144.033 72.7333 142.633 72.2 141.3C71.6667 139.967 70.9333 138.8 70 137.8C69.0667 136.733 67.9667 135.867 66.7 135.2C65.5 134.533 64.1667 134.1 62.7 133.9ZM171.223 118.3H118.123V126.1H157.523V133.9H110.323V110.5H163.423V102.7H102.523V157.2H163.423V149.4H110.323V141.6H171.223V165H94.7227V94.9H171.223V118.3ZM261.85 126V165H218.75C214.083 164.8 209.717 163.767 205.65 161.9C201.583 159.967 198.017 157.433 194.95 154.3C191.95 151.1 189.583 147.433 187.85 143.3C186.117 139.167 185.25 134.733 185.25 130C185.25 125.267 186.117 120.833 187.85 116.7C189.583 112.5 191.95 108.833 194.95 105.7C198.017 102.5 201.583 99.9667 205.65 98.1C209.717 96.1667 214.083 95.1 218.75 94.9H261.85V118.4H218.75C215.75 118.667 213.25 119.9 211.25 122.1C209.317 124.3 208.35 126.9 208.35 129.9C208.35 132.967 209.317 135.6 211.25 137.8C213.25 139.933 215.75 141.2 218.75 141.6H246.15V149.4H218.75C216.217 149.2 213.85 148.567 211.65 147.5C209.45 146.433 207.517 145.033 205.85 143.3C204.25 141.5 202.983 139.467 202.05 137.2C201.117 134.933 200.65 132.5 200.65 129.9C200.65 127.433 201.083 125.067 201.95 122.8C202.883 120.533 204.15 118.533 205.75 116.8C207.35 115 209.217 113.567 211.35 112.5C213.483 111.367 215.817 110.7 218.35 110.5H253.95V102.7H218.75C215.15 102.9 211.783 103.767 208.65 105.3C205.583 106.767 202.883 108.733 200.55 111.2C198.217 113.667 196.383 116.5 195.05 119.7C193.717 122.9 193.05 126.333 193.05 130C193.05 133.6 193.717 137.033 195.05 140.3C196.383 143.5 198.217 146.333 200.55 148.8C202.883 151.2 205.583 153.167 208.65 154.7C211.783 156.167 215.15 157 218.75 157.2H253.95V133.8H217.05V126H261.85ZM351.775 127.1C351.775 132.3 350.775 137.2 348.775 141.8C346.775 146.4 344.042 150.433 340.575 153.9C337.175 157.3 333.175 160 328.575 162C323.975 164 319.042 165 313.775 165C308.642 165 303.808 164.067 299.275 162.2C294.742 160.267 290.775 157.667 287.375 154.4C283.975 151.067 281.242 147.2 279.175 142.8C277.175 138.333 276.075 133.533 275.875 128.4V94.9H298.775V127.1C298.775 129.167 299.175 131.133 299.975 133C300.775 134.8 301.842 136.367 303.175 137.7C304.508 139.033 306.075 140.1 307.875 140.9C309.742 141.7 311.708 142.1 313.775 142.1C315.842 142.1 317.775 141.733 319.575 141C321.375 140.2 322.942 139.167 324.275 137.9C325.608 136.567 326.675 135 327.475 133.2C328.275 131.4 328.708 129.5 328.775 127.5V94.9H336.375V127.1C336.375 130.233 335.775 133.167 334.575 135.9C333.442 138.633 331.842 141.033 329.775 143.1C327.708 145.1 325.308 146.7 322.575 147.9C319.842 149.1 316.908 149.7 313.775 149.7C310.708 149.7 307.808 149.133 305.075 148C302.342 146.8 299.942 145.2 297.875 143.2C295.875 141.133 294.275 138.767 293.075 136.1C291.875 133.367 291.275 130.433 291.275 127.3H291.175V102.6H283.675V127.6C283.742 131.733 284.575 135.6 286.175 139.2C287.775 142.733 289.942 145.867 292.675 148.6C295.408 151.267 298.575 153.367 302.175 154.9C305.775 156.433 309.642 157.2 313.775 157.2C317.975 157.2 321.875 156.433 325.475 154.9C329.142 153.3 332.342 151.133 335.075 148.4C337.808 145.667 339.942 142.467 341.475 138.8C343.075 135.133 343.875 131.233 343.875 127.1V94.9H351.775V127.1ZM415.716 165L406.616 149.3H389.116V165H365.816V126L423.016 126.1C424.616 126.1 426.116 125.8 427.516 125.2C428.983 124.533 430.25 123.7 431.316 122.7C432.383 121.633 433.216 120.4 433.816 119C434.416 117.533 434.716 116 434.716 114.4C434.716 112.8 434.416 111.3 433.816 109.9C433.216 108.433 432.383 107.167 431.316 106.1C430.25 105.033 428.983 104.2 427.516 103.6C426.116 103 424.616 102.7 423.016 102.7H373.616V110.5H423.016C424.083 110.567 424.95 110.967 425.616 111.7C426.35 112.433 426.716 113.333 426.716 114.4C426.716 115.467 426.35 116.367 425.616 117.1C424.95 117.833 424.083 118.233 423.016 118.3H422.916H422.816H365.816V94.9H423.016C425.683 94.9 428.216 95.4333 430.616 96.5C433.016 97.5 435.083 98.8667 436.816 100.6C438.55 102.333 439.916 104.4 440.916 106.8C441.983 109.2 442.516 111.733 442.516 114.4C442.516 117.067 441.983 119.6 440.916 122C439.916 124.333 438.55 126.4 436.816 128.2C435.083 129.933 433.016 131.333 430.616 132.4C428.216 133.4 425.683 133.9 423.016 133.9L373.616 133.8V157.2H381.416V141.5H411.116C411.916 142.967 412.816 144.567 413.816 146.3C414.816 147.967 415.75 149.6 416.616 151.2C417.55 152.733 418.35 154.067 419.016 155.2C419.683 156.267 420.083 156.933 420.216 157.2H429.216C429.016 156.933 428.583 156.267 427.916 155.2C427.316 154.133 426.583 152.867 425.716 151.4C424.916 149.867 424.016 148.233 423.016 146.5C422.016 144.767 421.05 143.1 420.116 141.5H429.116C430.783 144.367 432.416 147.2 434.016 150C435.616 152.8 437.083 155.3 438.416 157.5L442.716 165H415.716ZM503.31 133.8L516.91 157.2H525.91C525.577 156.667 524.81 155.433 523.61 153.5C522.477 151.5 521.11 149.133 519.51 146.4C517.91 143.667 516.21 140.8 514.41 137.8C512.677 134.733 511.01 131.833 509.41 129.1C507.877 126.367 506.543 124.033 505.41 122.1C504.277 120.1 503.577 118.833 503.31 118.3L483.71 152.3L476.41 165H449.41C449.81 164.4 450.677 162.933 452.01 160.6C453.343 158.2 454.977 155.3 456.91 151.9C458.91 148.5 461.11 144.733 463.51 140.6C465.91 136.4 468.31 132.2 470.71 128C473.577 123 476.577 117.767 479.71 112.3C482.843 106.767 486.21 100.967 489.81 94.9H498.81L480.21 127.1L462.91 157.2H471.91C474.977 151.8 477.81 146.867 480.41 142.4C483.01 137.867 485.51 133.5 487.91 129.3C490.377 125.1 492.843 120.867 495.31 116.6C497.777 112.333 500.443 107.7 503.31 102.7C503.377 102.833 503.943 103.833 505.01 105.7C506.143 107.567 507.543 109.967 509.21 112.9C510.943 115.833 512.877 119.167 515.01 122.9C517.143 126.633 519.31 130.433 521.51 134.3C523.777 138.1 525.977 141.867 528.11 145.6C530.243 149.267 532.143 152.533 533.81 155.4C535.477 158.267 536.81 160.6 537.81 162.4C538.877 164.133 539.41 165 539.41 165H512.41L498.81 141.6L503.31 133.8Z" fill="#111111"/>
<path d="M4 0.899997H80.5V24.3H61.7V16.5H72.7V8.7H11.8V16.5H38.4L38.3 63.2H46.1V16.5H53.9V71H30.5V24.3H4V0.899997ZM171.027 24.3H117.927V32.1H157.327V39.9H110.127V16.5H163.227V8.7H102.327V63.2H163.227V55.4H110.127V47.6H171.027V71H94.5273V0.899997H171.027V24.3ZM254.655 0.899997H279.455V71H256.055V44.8L241.155 71H223.255L200.555 31.2V16.5L227.855 63.2H236.655L263.855 16.5V63.2H271.655V8.7H259.155L232.055 55.5L205.355 8.7H192.855V63.2H200.555V48.5L208.355 61.9V71H185.055V0.899997H209.855L232.255 40.6L254.655 0.899997ZM350.553 0.899997C353.22 0.899997 355.72 1.43333 358.053 2.49999C360.453 3.5 362.52 4.86666 364.253 6.59999C365.986 8.33333 367.353 10.4 368.353 12.8C369.42 15.2 369.953 17.7333 369.953 20.4C369.953 23.0667 369.42 25.6 368.353 28C367.353 30.3333 365.986 32.4 364.253 34.2C362.52 35.9333 360.453 37.3333 358.053 38.4C355.72 39.4 353.22 39.9 350.553 39.9L301.253 39.8V63.2H309.053V47.6H316.753V71H293.453V32L350.553 32.1C352.153 32.1 353.653 31.8 355.053 31.2C356.453 30.5333 357.686 29.7 358.753 28.7C359.82 27.6333 360.653 26.4 361.253 25C361.853 23.5333 362.153 22 362.153 20.4C362.153 18.8 361.853 17.3 361.253 15.9C360.653 14.4333 359.82 13.1667 358.753 12.1C357.686 11.0333 356.453 10.2 355.053 9.6C353.653 9 352.153 8.7 350.553 8.7H301.253V16.5H350.553C351.553 16.5667 352.42 16.9667 353.153 17.7C353.886 18.4333 354.253 19.3333 354.253 20.4C354.253 21.4667 353.886 22.3667 353.153 23.1C352.42 23.8333 351.486 24.2333 350.353 24.3H350.253H293.453V0.899997H350.553Z" fill="#111111"/>
</g>
<defs>
<filter id="filter0_d_35_3" x="0" y="0.900024" width="543.41" height="172.1" filterUnits="userSpaceOnUse" color-interpolation-filters="sRGB">
<feFlood flood-opacity="0" result="BackgroundImageFix"/>
<feColorMatrix in="SourceAlpha" type="matrix" values="0 0 0 0 0 0 0 0 0 0 0 0 0 0 0 0 0 0 127 0" result="hardAlpha"/>
<feOffset dy="4"/>
<feGaussianBlur stdDeviation="2"/>
<feComposite in2="hardAlpha" operator="out"/>
<feColorMatrix type="matrix" values="0 0 0 0 0 0 0 0 0 0 0 0 0 0 0 0 0 0 0.25 0"/>
<feBlend mode="normal" in2="BackgroundImageFix" result="effect1_dropShadow_35_3"/>
<feBlend mode="normal" in="SourceGraphic" in2="effect1_dropShadow_35_3" result="shape"/>
</filter>
</defs>
</svg>
