<svg width="172" height="164" viewBox="0 0 172 164" fill="none" xmlns="http://www.w3.org/2000/svg">
<path d="M0 20C0 8.95431 8.9543 0 20 0H152C163.046 0 172 8.95431 172 20V144C172 155.046 163.046 164 152 164H20C8.9543 164 0 155.046 0 144V20Z" fill="#111111"/>
<path d="M0 20C0 8.95431 8.9543 0 20 0H152C163.046 0 172 8.95431 172 20V144C172 155.046 163.046 164 152 164H20C8.9543 164 0 155.046 0 144V20Z" stroke="#111111"/>
<mask id="path-2-outside-1_6_60" maskUnits="userSpaceOnUse" x="36" y="35" width="102" height="94" fill="black">
<rect fill="white" x="36" y="35" width="102" height="94"/>
<path d="M37 36.87H136.45V67.29H112.01V57.15H126.31V47.01H47.14V57.15H81.72L81.59 117.86H91.73V57.15H101.87V128H71.45V67.29H37V36.87Z"/>
</mask>
<path d="M37 36.87H136.45V67.29H112.01V57.15H126.31V47.01H47.14V57.15H81.72L81.59 117.86H91.73V57.15H101.87V128H71.45V67.29H37V36.87Z" fill="#F6F6F6"/>
<path d="M37 36.87V35.87H36V36.87H37ZM136.45 36.87H137.45V35.87H136.45V36.87ZM136.45 67.29V68.29H137.45V67.29H136.45ZM112.01 67.29H111.01V68.29H112.01V67.29ZM112.01 57.15V56.15H111.01V57.15H112.01ZM126.31 57.15V58.15H127.31V57.15H126.31ZM126.31 47.01H127.31V46.01H126.31V47.01ZM47.14 47.01V46.01H46.14V47.01H47.14ZM47.14 57.15H46.14V58.15H47.14V57.15ZM81.72 57.15L82.72 57.1521L82.7221 56.15H81.72V57.15ZM81.59 117.86L80.59 117.858L80.5879 118.86H81.59V117.86ZM91.73 117.86V118.86H92.73V117.86H91.73ZM91.73 57.15V56.15H90.73V57.15H91.73ZM101.87 57.15H102.87V56.15H101.87V57.15ZM101.87 128V129H102.87V128H101.87ZM71.45 128H70.45V129H71.45V128ZM71.45 67.29H72.45V66.29H71.45V67.29ZM37 67.29H36V68.29H37V67.29ZM37 37.87H136.45V35.87H37V37.87ZM135.45 36.87V67.29H137.45V36.87H135.45ZM136.45 66.29H112.01V68.29H136.45V66.29ZM113.01 67.29V57.15H111.01V67.29H113.01ZM112.01 58.15H126.31V56.15H112.01V58.15ZM127.31 57.15V47.01H125.31V57.15H127.31ZM126.31 46.01H47.14V48.01H126.31V46.01ZM46.14 47.01V57.15H48.14V47.01H46.14ZM47.14 58.15H81.72V56.15H47.14V58.15ZM80.72 57.1479L80.59 117.858L82.59 117.862L82.72 57.1521L80.72 57.1479ZM81.59 118.86H91.73V116.86H81.59V118.86ZM92.73 117.86V57.15H90.73V117.86H92.73ZM91.73 58.15H101.87V56.15H91.73V58.15ZM100.87 57.15V128H102.87V57.15H100.87ZM101.87 127H71.45V129H101.87V127ZM72.45 128V67.29H70.45V128H72.45ZM71.45 66.29H37V68.29H71.45V66.29ZM38 67.29V36.87H36V67.29H38Z" fill="black" mask="url(#path-2-outside-1_6_60)"/>
</svg>
