<svg width="947" height="164" viewBox="0 0 947 164" fill="none" xmlns="http://www.w3.org/2000/svg">
<path d="M0 20C0 8.95431 8.9543 0 20 0H152C163.046 0 172 8.95431 172 20V144C172 155.046 163.046 164 152 164H20C8.9543 164 0 155.046 0 144V20Z" fill="#F6F6F6"/>
<path d="M37 36.87H136.45V67.29H112.01V57.15H126.31V47.01H47.14V57.15H81.72L81.59 117.86H91.73V57.15H101.87V128H71.45V67.29H37V36.87Z" fill="#1F2937"/>
<path d="M308.31 87.57C299.73 87.57 292.45 87.57 286.47 87.57C280.577 87.57 275.68 87.57 271.78 87.57C267.88 87.57 264.847 87.57 262.68 87.57C260.513 87.4833 258.91 87.44 257.87 87.44C256.83 87.44 256.137 87.44 255.79 87.44C255.53 87.44 255.357 87.44 255.27 87.44H255.01C251.717 87.18 248.683 86.3567 245.91 84.97C243.137 83.4967 240.71 81.6333 238.63 79.38C236.55 77.1267 234.903 74.5267 233.69 71.58C232.563 68.6333 232 65.5133 232 62.22C232 58.7533 232.65 55.46 233.95 52.34C235.337 49.22 237.157 46.5333 239.41 44.28C241.663 42.0267 244.307 40.25 247.34 38.95C250.46 37.5633 253.797 36.87 257.35 36.87H311.95C314.637 36.87 317.193 37.39 319.62 38.43C322.047 39.47 324.127 40.9 325.86 42.72C327.68 44.4533 329.11 46.5333 330.15 48.96C331.19 51.3867 331.71 53.9867 331.71 56.76V67.29H257.74H257.61H257.48C256.007 67.2033 254.793 66.6833 253.84 65.73C252.973 64.7767 252.54 63.6067 252.54 62.22C252.54 60.8333 252.973 59.6633 253.84 58.71C254.793 57.7567 255.963 57.2367 257.35 57.15H321.57V56.89C321.57 54.1167 320.617 51.7767 318.71 49.87C316.803 47.9633 314.463 47.01 311.69 47.01H257.35C255.27 47.01 253.277 47.4 251.37 48.18C249.55 48.96 247.947 50.0433 246.56 51.43C245.26 52.8167 244.177 54.4633 243.31 56.37C242.53 58.19 242.14 60.14 242.14 62.22C242.14 66.12 243.397 69.5 245.91 72.36C248.51 75.1333 251.673 76.78 255.4 77.3C264.067 77.3 271.347 77.3 277.24 77.3C283.22 77.3 288.16 77.3 292.06 77.3C295.96 77.3 298.993 77.3433 301.16 77.43C303.327 77.43 304.93 77.43 305.97 77.43C307.097 77.43 307.79 77.43 308.05 77.43C308.31 77.43 308.527 77.43 308.7 77.43C311.907 77.69 314.897 78.5567 317.67 80.03C320.53 81.4167 323 83.28 325.08 85.62C327.16 87.8733 328.763 90.4733 329.89 93.42C331.103 96.3667 331.71 99.4433 331.71 102.65C331.71 106.203 331.017 109.54 329.63 112.66C328.33 115.693 326.553 118.337 324.3 120.59C322.047 122.843 319.36 124.663 316.24 126.05C313.207 127.35 309.957 128 306.49 128H251.76C248.987 128 246.387 127.48 243.96 126.44C241.62 125.4 239.54 124.013 237.72 122.28C235.987 120.46 234.6 118.38 233.56 116.04C232.52 113.613 232 111.013 232 108.24V97.58H306.49C308.05 97.6667 309.22 98.23 310 99.27C310.867 100.31 311.3 101.437 311.3 102.65C311.3 103.863 310.867 104.99 310 106.03C309.22 107.07 308.05 107.633 306.49 107.72H242.14V107.98C242.14 110.753 243.093 113.093 245 115C246.907 116.907 249.247 117.86 252.02 117.86H306.49C308.57 117.86 310.52 117.47 312.34 116.69C314.16 115.91 315.763 114.87 317.15 113.57C318.537 112.183 319.62 110.58 320.4 108.76C321.267 106.853 321.7 104.817 321.7 102.65C321.7 100.743 321.353 98.9233 320.66 97.19C319.967 95.4567 319.013 93.94 317.8 92.64C316.587 91.2533 315.157 90.1267 313.51 89.26C311.95 88.3933 310.217 87.83 308.31 87.57ZM449.389 67.29H380.359V77.43H431.579V87.57H370.219V57.15H439.249V47.01H360.079V117.86H439.249V107.72H370.219V97.58H449.389V128H349.939V36.87H449.389V67.29ZM567.205 77.3V128H511.175C505.108 127.74 499.432 126.397 494.145 123.97C488.858 121.457 484.222 118.163 480.235 114.09C476.335 109.93 473.258 105.163 471.005 99.79C468.752 94.4167 467.625 88.6533 467.625 82.5C467.625 76.3467 468.752 70.5833 471.005 65.21C473.258 59.75 476.335 54.9833 480.235 50.91C484.222 46.75 488.858 43.4567 494.145 41.03C499.432 38.5167 505.108 37.13 511.175 36.87H567.205V67.42H511.175C507.275 67.7667 504.025 69.37 501.425 72.23C498.912 75.09 497.655 78.47 497.655 82.37C497.655 86.3567 498.912 89.78 501.425 92.64C504.025 95.4133 507.275 97.06 511.175 97.58H546.795V107.72H511.175C507.882 107.46 504.805 106.637 501.945 105.25C499.085 103.863 496.572 102.043 494.405 99.79C492.325 97.45 490.678 94.8067 489.465 91.86C488.252 88.9133 487.645 85.75 487.645 82.37C487.645 79.1633 488.208 76.0867 489.335 73.14C490.548 70.1933 492.195 67.5933 494.275 65.34C496.355 63 498.782 61.1367 501.555 59.75C504.328 58.2767 507.362 57.41 510.655 57.15H556.935V47.01H511.175C506.495 47.27 502.118 48.3967 498.045 50.39C494.058 52.2967 490.548 54.8533 487.515 58.06C484.482 61.2667 482.098 64.95 480.365 69.11C478.632 73.27 477.765 77.7333 477.765 82.5C477.765 87.18 478.632 91.6433 480.365 95.89C482.098 100.05 484.482 103.733 487.515 106.94C490.548 110.06 494.058 112.617 498.045 114.61C502.118 116.517 506.495 117.6 511.175 117.86H556.935V87.44H508.965V77.3H567.205ZM684.108 78.73C684.108 85.49 682.808 91.86 680.208 97.84C677.608 103.82 674.054 109.063 669.548 113.57C665.128 117.99 659.928 121.5 653.948 124.1C647.968 126.7 641.554 128 634.708 128C628.034 128 621.751 126.787 615.858 124.36C609.964 121.847 604.808 118.467 600.388 114.22C595.968 109.887 592.414 104.86 589.727 99.14C587.127 93.3333 585.698 87.0933 585.438 80.42V36.87H615.208V78.73C615.208 81.4167 615.728 83.9733 616.768 86.4C617.808 88.74 619.194 90.7767 620.928 92.51C622.661 94.2433 624.698 95.63 627.038 96.67C629.464 97.71 632.021 98.23 634.708 98.23C637.394 98.23 639.908 97.7533 642.248 96.8C644.588 95.76 646.624 94.4167 648.358 92.77C650.091 91.0367 651.478 89 652.518 86.66C653.558 84.32 654.121 81.85 654.208 79.25V36.87H664.088V78.73C664.088 82.8033 663.308 86.6167 661.748 90.17C660.274 93.7233 658.194 96.8433 655.508 99.53C652.821 102.13 649.701 104.21 646.148 105.77C642.594 107.33 638.781 108.11 634.708 108.11C630.721 108.11 626.951 107.373 623.398 105.9C619.844 104.34 616.724 102.26 614.038 99.66C611.438 96.9733 609.358 93.8967 607.798 90.43C606.238 86.8767 605.458 83.0633 605.458 78.99H605.328V46.88H595.578V79.38C595.664 84.7533 596.748 89.78 598.828 94.46C600.908 99.0533 603.724 103.127 607.278 106.68C610.831 110.147 614.948 112.877 619.628 114.87C624.308 116.863 629.334 117.86 634.708 117.86C640.168 117.86 645.238 116.863 649.918 114.87C654.684 112.79 658.844 109.973 662.398 106.42C665.951 102.867 668.724 98.7067 670.718 93.94C672.798 89.1733 673.838 84.1033 673.838 78.73V36.87H684.108V78.73ZM767.231 128L755.401 107.59H732.651V128H702.361V77.3L776.721 77.43C778.801 77.43 780.751 77.04 782.571 76.26C784.478 75.3933 786.125 74.31 787.511 73.01C788.898 71.6233 789.981 70.02 790.761 68.2C791.541 66.2933 791.931 64.3 791.931 62.22C791.931 60.14 791.541 58.19 790.761 56.37C789.981 54.4633 788.898 52.8167 787.511 51.43C786.125 50.0433 784.478 48.96 782.571 48.18C780.751 47.4 778.801 47.01 776.721 47.01H712.501V57.15H776.721C778.108 57.2367 779.235 57.7567 780.101 58.71C781.055 59.6633 781.531 60.8333 781.531 62.22C781.531 63.6067 781.055 64.7767 780.101 65.73C779.235 66.6833 778.108 67.2033 776.721 67.29H776.591H776.461H702.361V36.87H776.721C780.188 36.87 783.481 37.5633 786.601 38.95C789.721 40.25 792.408 42.0267 794.661 44.28C796.915 46.5333 798.691 49.22 799.991 52.34C801.378 55.46 802.071 58.7533 802.071 62.22C802.071 65.6867 801.378 68.98 799.991 72.1C798.691 75.1333 796.915 77.82 794.661 80.16C792.408 82.4133 789.721 84.2333 786.601 85.62C783.481 86.92 780.188 87.57 776.721 87.57L712.501 87.44V117.86H722.641V97.45H761.251C762.291 99.3567 763.461 101.437 764.761 103.69C766.061 105.857 767.275 107.98 768.401 110.06C769.615 112.053 770.655 113.787 771.521 115.26C772.388 116.647 772.908 117.513 773.081 117.86H784.781C784.521 117.513 783.958 116.647 783.091 115.26C782.311 113.873 781.358 112.227 780.231 110.32C779.191 108.327 778.021 106.203 776.721 103.95C775.421 101.697 774.165 99.53 772.951 97.45H784.651C786.818 101.177 788.941 104.86 791.021 108.5C793.101 112.14 795.008 115.39 796.741 118.25L802.331 128H767.231ZM881.103 87.44L898.783 117.86H910.483C910.05 117.167 909.053 115.563 907.493 113.05C906.02 110.45 904.243 107.373 902.163 103.82C900.083 100.267 897.873 96.54 895.533 92.64C893.28 88.6533 891.113 84.8833 889.033 81.33C887.04 77.7767 885.307 74.7433 883.833 72.23C882.36 69.63 881.45 67.9833 881.103 67.29L855.623 111.49L846.133 128H811.033C811.553 127.22 812.68 125.313 814.413 122.28C816.147 119.16 818.27 115.39 820.783 110.97C823.383 106.55 826.243 101.653 829.363 96.28C832.483 90.82 835.603 85.36 838.723 79.9C842.45 73.4 846.35 66.5967 850.423 59.49C854.497 52.2967 858.873 44.7567 863.553 36.87H875.253L851.073 78.73L828.583 117.86H840.283C844.27 110.84 847.953 104.427 851.333 98.62C854.713 92.7267 857.963 87.05 861.083 81.59C864.29 76.13 867.497 70.6267 870.703 65.08C873.91 59.5333 877.377 53.51 881.103 47.01C881.19 47.1833 881.927 48.4833 883.313 50.91C884.787 53.3367 886.607 56.4567 888.773 60.27C891.027 64.0833 893.54 68.4167 896.313 73.27C899.087 78.1233 901.903 83.0633 904.763 88.09C907.71 93.03 910.57 97.9267 913.343 102.78C916.117 107.547 918.587 111.793 920.753 115.52C922.92 119.247 924.653 122.28 925.953 124.62C927.34 126.873 928.033 128 928.033 128H892.933L875.253 97.58L881.103 87.44Z" fill="#F6F6F6"/>
</svg>
