<svg width="56" height="56" viewBox="0 0 56 56" fill="none" xmlns="http://www.w3.org/2000/svg">
<path d="M28 41.6213C35.5228 41.6213 41.6213 35.5228 41.6213 28C41.6213 20.4771 35.5228 14.3787 28 14.3787C20.4771 14.3787 14.3787 20.4771 14.3787 28C14.3787 35.5228 20.4771 41.6213 28 41.6213Z" stroke="white" stroke-width="3" stroke-miterlimit="10" stroke-linecap="round" stroke-linejoin="round"/>
<path d="M54 22.6232H48.193C47.1654 20.1618 47.0938 19.9706 46.0901 17.5092L50.2004 13.3989L42.5772 5.79963L38.4669 9.90993C36.0055 8.88235 35.8143 8.81066 33.3529 7.80699V2H22.5993V7.80699C20.1379 8.83456 19.9467 8.90625 17.4853 9.90993L13.4228 5.79963L5.79963 13.4228L9.90993 17.5331C8.88235 19.9945 8.81066 20.1857 7.80699 22.6471H2V33.4007H7.80699C8.83456 35.8621 8.90625 36.0533 9.90993 38.5147L5.79963 42.5772L13.3989 50.1765L17.5092 46.0662C19.9706 47.0938 20.1618 47.1654 22.6232 48.1691V53.9761H33.3768V48.1691C35.8382 47.1415 36.0294 47.0699 38.4908 46.0662L42.6011 50.1765L50.2004 42.5772L46.0901 38.4669C47.1177 36.0055 47.1893 35.8143 48.193 33.3529H54V22.6232Z" stroke="white" stroke-width="3" stroke-miterlimit="10" stroke-linecap="round" stroke-linejoin="round"/>
</svg>
