<svg width="52" height="70" viewBox="0 0 52 70" fill="none" xmlns="http://www.w3.org/2000/svg">
<path d="M50.1667 2.33333H35V1.16667C35 0.857247 34.8771 0.560501 34.6583 0.341709C34.4395 0.122916 34.1427 0 33.8333 0H17.5C17.1906 0 16.8938 0.122916 16.675 0.341709C16.4562 0.560501 16.3333 0.857247 16.3333 1.16667V2.33333H1.16667C0.857247 2.33333 0.560501 2.45625 0.341709 2.67504C0.122917 2.89383 0 3.19058 0 3.5V68.8333C0 69.1428 0.122917 69.4395 0.341709 69.6583C0.560501 69.8771 0.857247 70 1.16667 70H50.1667C50.4761 70 50.7728 69.8771 50.9916 69.6583C51.2104 69.4395 51.3333 69.1428 51.3333 68.8333V3.5C51.3333 3.19058 51.2104 2.89383 50.9916 2.67504C50.7728 2.45625 50.4761 2.33333 50.1667 2.33333ZM18.6667 2.33333H32.6667V5.83333C32.6667 6.14275 32.5438 6.4395 32.325 6.65829C32.1062 6.87708 31.8094 7 31.5 7H19.8333C19.5239 7 19.2272 6.87708 19.0084 6.65829C18.7896 6.4395 18.6667 6.14275 18.6667 5.83333V2.33333ZM19.8333 9.33333H44.3333V63H7V9.33333H19.8333ZM49 67.6667H2.33333V4.66667H16.3333V5.83333C16.3372 6.23168 16.4098 6.62637 16.548 7H5.83333C5.52391 7 5.22717 7.12292 5.00838 7.34171C4.78958 7.5605 4.66667 7.85725 4.66667 8.16667V64.1667C4.66667 64.4761 4.78958 64.7728 5.00838 64.9916C5.22717 65.2104 5.52391 65.3333 5.83333 65.3333H45.5C45.8094 65.3333 46.1062 65.2104 46.325 64.9916C46.5438 64.7728 46.6667 64.4761 46.6667 64.1667V8.16667C46.6667 7.85725 46.5438 7.5605 46.325 7.34171C46.1062 7.12292 45.8094 7 45.5 7H34.7853C34.9235 6.62637 34.9961 6.23168 35 5.83333V4.66667H49V67.6667Z" fill="white"/>
<path d="M16.3333 28.0002C17.6564 27.999 18.9521 27.6229 20.0702 26.9155C21.1884 26.208 22.0831 25.1981 22.6506 24.0029C23.2182 22.8076 23.4354 21.476 23.277 20.1624C23.1187 18.8488 22.5913 17.6069 21.7559 16.5808L23.1151 14.678C23.281 14.426 23.3428 14.1196 23.2875 13.823C23.2323 13.5264 23.0644 13.2627 22.8189 13.0873C22.5735 12.9119 22.2696 12.8384 21.9712 12.8822C21.6727 12.9261 21.4028 13.0838 21.2181 13.3223L19.9884 15.042C19.0665 14.4735 18.0253 14.1267 16.9467 14.0288C15.868 13.931 14.7813 14.0847 13.7722 14.478C12.7631 14.8714 11.8589 15.4935 11.131 16.2955C10.4031 17.0974 9.87114 18.0574 9.5771 19.0998C9.28307 20.1422 9.23493 21.2386 9.43648 22.3028C9.63803 23.367 10.0838 24.3699 10.7386 25.2325C11.3935 26.0952 12.2396 26.7942 13.2104 27.2744C14.1812 27.7547 15.2502 28.0031 16.3333 28.0002ZM16.3333 16.3335C17.1373 16.3384 17.926 16.5536 18.6211 16.9577L16.1839 20.3678L14.8248 19.0086C14.6047 18.7961 14.31 18.6785 14.0041 18.6812C13.6982 18.6839 13.4056 18.8066 13.1893 19.0229C12.973 19.2392 12.8503 19.5318 12.8476 19.8377C12.845 20.1436 12.9626 20.4383 13.1751 20.6583L15.5084 22.9917C15.7272 23.2105 16.0239 23.3334 16.3333 23.3335C16.3648 23.3335 16.3974 23.3335 16.4289 23.3335C16.5978 23.3194 16.7616 23.2687 16.9089 23.1848C17.0561 23.101 17.1834 22.9861 17.2818 22.8482L20.3151 18.6027C20.7591 19.3238 20.9961 20.1533 20.9999 21.0002C20.9999 21.9231 20.7262 22.8254 20.2135 23.5928C19.7007 24.3602 18.9718 24.9584 18.1191 25.3116C17.2664 25.6648 16.3281 25.7572 15.4228 25.5771C14.5176 25.3971 13.6861 24.9526 13.0334 24.3C12.3808 23.6473 11.9363 22.8158 11.7563 21.9106C11.5762 21.0053 11.6686 20.067 12.0218 19.2143C12.375 18.3616 12.9732 17.6327 13.7406 17.12C14.508 16.6072 15.4103 16.3335 16.3333 16.3335Z" fill="white"/>
<path d="M16.3333 44.3334C17.6564 44.3323 18.9521 43.9562 20.0702 43.2487C21.1884 42.5412 22.0831 41.5313 22.6506 40.3361C23.2182 39.1409 23.4354 37.8093 23.277 36.4957C23.1187 35.182 22.5913 33.9402 21.7559 32.9141L23.1151 31.0112C23.281 30.7592 23.3428 30.4528 23.2875 30.1562C23.2323 29.8597 23.0644 29.596 22.8189 29.4206C22.5735 29.2452 22.2696 29.1717 21.9712 29.2155C21.6727 29.2593 21.4028 29.417 21.2181 29.6556L19.9884 31.3752C19.0665 30.8067 18.0253 30.4599 16.9467 30.3621C15.868 30.2642 14.7813 30.418 13.7722 30.8113C12.7631 31.2046 11.8589 31.8267 11.131 32.6287C10.4031 33.4307 9.87114 34.3907 9.5771 35.4331C9.28307 36.4755 9.23493 37.5719 9.43648 38.6361C9.63803 39.7002 10.0838 40.7031 10.7386 41.5658C11.3935 42.4285 12.2396 43.1274 13.2104 43.6077C14.1812 44.0879 15.2502 44.3364 16.3333 44.3334ZM16.3333 32.6667C17.1373 32.6716 17.926 32.8868 18.6211 33.2909L16.1839 36.7011L14.8248 35.3419C14.6047 35.1294 14.31 35.0118 14.0041 35.0144C13.6982 35.0171 13.4056 35.1398 13.1893 35.3561C12.973 35.5724 12.8503 35.865 12.8476 36.1709C12.845 36.4768 12.9626 36.7715 13.1751 36.9916L15.5084 39.3249C15.7272 39.5437 16.0239 39.6667 16.3333 39.6667C16.3648 39.6667 16.3974 39.6667 16.4289 39.6667C16.5978 39.6526 16.7616 39.6019 16.9089 39.5181C17.0561 39.4343 17.1834 39.3194 17.2818 39.1814L20.3151 34.9359C20.7591 35.6571 20.9961 36.4865 20.9999 37.3334C20.9999 38.2564 20.7262 39.1586 20.2135 39.9261C19.7007 40.6935 18.9718 41.2916 18.1191 41.6448C17.2664 41.9981 16.3281 42.0905 15.4228 41.9104C14.5176 41.7303 13.6861 41.2859 13.0334 40.6332C12.3808 39.9806 11.9363 39.1491 11.7563 38.2438C11.5762 37.3386 11.6686 36.4003 12.0218 35.5475C12.375 34.6948 12.9732 33.966 13.7406 33.4532C14.508 32.9404 15.4103 32.6667 16.3333 32.6667Z" fill="white"/>
<path d="M16.3333 60.6669C17.6564 60.6658 18.9521 60.2897 20.0702 59.5822C21.1884 58.8747 22.0831 57.8648 22.6506 56.6696C23.2182 55.4744 23.4354 54.1428 23.277 52.8292C23.1187 51.5155 22.5913 50.2737 21.7559 49.2476L23.1151 47.3447C23.281 47.0927 23.3428 46.7863 23.2875 46.4897C23.2323 46.1932 23.0644 45.9295 22.8189 45.7541C22.5735 45.5787 22.2696 45.5052 21.9712 45.549C21.6727 45.5928 21.4028 45.7505 21.2181 45.9891L19.9884 47.7087C19.0665 47.1402 18.0253 46.7934 16.9467 46.6956C15.868 46.5977 14.7813 46.7515 13.7722 47.1448C12.7631 47.5381 11.8589 48.1602 11.131 48.9622C10.4031 49.7642 9.87114 50.7242 9.5771 51.7666C9.28307 52.809 9.23493 53.9054 9.43648 54.9696C9.63803 56.0337 10.0838 57.0366 10.7386 57.8993C11.3935 58.762 12.2396 59.4609 13.2104 59.9412C14.1812 60.4214 15.2502 60.6698 16.3333 60.6669ZM16.3333 49.0002C17.1373 49.0051 17.926 49.2203 18.6211 49.6244L16.1839 53.0346L14.8248 51.6754C14.6047 51.4629 14.31 51.3453 14.0041 51.3479C13.6982 51.3506 13.4056 51.4733 13.1893 51.6896C12.973 51.9059 12.8503 52.1985 12.8476 52.5044C12.845 52.8103 12.9626 53.105 13.1751 53.3251L15.5084 55.6584C15.7272 55.8772 16.0239 56.0002 16.3333 56.0002C16.3648 56.0002 16.3974 56.0002 16.4289 56.0002C16.5978 55.9861 16.7616 55.9354 16.9089 55.8516C17.0561 55.7678 17.1834 55.6529 17.2818 55.5149L20.3151 51.2694C20.7591 51.9906 20.9961 52.82 20.9999 53.6669C20.9999 54.5899 20.7262 55.4921 20.2135 56.2596C19.7007 57.027 18.9718 57.6251 18.1191 57.9783C17.2664 58.3315 16.3281 58.424 15.4228 58.2439C14.5176 58.0638 13.6861 57.6194 13.0334 56.9667C12.3808 56.3141 11.9363 55.4826 11.7563 54.5773C11.5762 53.6721 11.6686 52.7338 12.0218 51.881C12.375 51.0283 12.9732 50.2995 13.7406 49.7867C14.508 49.2739 15.4103 49.0002 16.3333 49.0002Z" fill="white"/>
<path d="M27.9999 20.9998H38.4999C38.8093 20.9998 39.1061 20.8769 39.3249 20.6581C39.5437 20.4393 39.6666 20.1426 39.6666 19.8332C39.6666 19.5238 39.5437 19.227 39.3249 19.0082C39.1061 18.7894 38.8093 18.6665 38.4999 18.6665H27.9999C27.6905 18.6665 27.3938 18.7894 27.175 19.0082C26.9562 19.227 26.8333 19.5238 26.8333 19.8332C26.8333 20.1426 26.9562 20.4393 27.175 20.6581C27.3938 20.8769 27.6905 20.9998 27.9999 20.9998Z" fill="white"/>
<path d="M27.9999 25.6666H38.4999C38.8093 25.6666 39.1061 25.5437 39.3249 25.3249C39.5437 25.1061 39.6666 24.8093 39.6666 24.4999C39.6666 24.1905 39.5437 23.8938 39.3249 23.675C39.1061 23.4562 38.8093 23.3333 38.4999 23.3333H27.9999C27.6905 23.3333 27.3938 23.4562 27.175 23.675C26.9562 23.8938 26.8333 24.1905 26.8333 24.4999C26.8333 24.8093 26.9562 25.1061 27.175 25.3249C27.3938 25.5437 27.6905 25.6666 27.9999 25.6666Z" fill="white"/>
<path d="M27.9999 37.3333H38.4999C38.8093 37.3333 39.1061 37.2104 39.3249 36.9916C39.5437 36.7728 39.6666 36.4761 39.6666 36.1667C39.6666 35.8572 39.5437 35.5605 39.3249 35.3417C39.1061 35.1229 38.8093 35 38.4999 35H27.9999C27.6905 35 27.3938 35.1229 27.175 35.3417C26.9562 35.5605 26.8333 35.8572 26.8333 36.1667C26.8333 36.4761 26.9562 36.7728 27.175 36.9916C27.3938 37.2104 27.6905 37.3333 27.9999 37.3333Z" fill="white"/>
<path d="M27.9999 42.0001H38.4999C38.8093 42.0001 39.1061 41.8772 39.3249 41.6584C39.5437 41.4396 39.6666 41.1428 39.6666 40.8334C39.6666 40.524 39.5437 40.2272 39.3249 40.0085C39.1061 39.7897 38.8093 39.6667 38.4999 39.6667H27.9999C27.6905 39.6667 27.3938 39.7897 27.175 40.0085C26.9562 40.2272 26.8333 40.524 26.8333 40.8334C26.8333 41.1428 26.9562 41.4396 27.175 41.6584C27.3938 41.8772 27.6905 42.0001 27.9999 42.0001Z" fill="white"/>
<path d="M27.9999 53.6668H38.4999C38.8093 53.6668 39.1061 53.5439 39.3249 53.3251C39.5437 53.1063 39.6666 52.8096 39.6666 52.5002C39.6666 52.1907 39.5437 51.894 39.3249 51.6752C39.1061 51.4564 38.8093 51.3335 38.4999 51.3335H27.9999C27.6905 51.3335 27.3938 51.4564 27.175 51.6752C26.9562 51.894 26.8333 52.1907 26.8333 52.5002C26.8333 52.8096 26.9562 53.1063 27.175 53.3251C27.3938 53.5439 27.6905 53.6668 27.9999 53.6668Z" fill="white"/>
<path d="M27.9999 58.3333H38.4999C38.8093 58.3333 39.1061 58.2104 39.3249 57.9916C39.5437 57.7728 39.6666 57.4761 39.6666 57.1667C39.6666 56.8572 39.5437 56.5605 39.3249 56.3417C39.1061 56.1229 38.8093 56 38.4999 56H27.9999C27.6905 56 27.3938 56.1229 27.175 56.3417C26.9562 56.5605 26.8333 56.8572 26.8333 57.1667C26.8333 57.4761 26.9562 57.7728 27.175 57.9916C27.3938 58.2104 27.6905 58.3333 27.9999 58.3333Z" fill="white"/>
</svg>
