<svg width="40" height="71" viewBox="0 0 40 71" fill="none" xmlns="http://www.w3.org/2000/svg">
<path d="M40 8.91468V11.9007H28.4294V8.91468H40ZM35.1479 15.4224H28.4294V18.4085H35.1479V15.4224ZM28.4294 24.9163H40V21.9305H28.4294V24.9163ZM35.1479 28.4398H28.4294V31.4259H35.1479V28.4398ZM28.4294 37.9337H40V34.9476H28.4294V37.9337ZM30.233 54.9476C30.233 63.2829 23.4518 70.0641 15.1165 70.0641C6.78119 70.0641 0 63.2829 0 54.9476C0 49.5461 2.83667 44.637 7.46487 41.9214V7.65164C7.4651 3.4323 10.8974 0 15.1165 0C19.3356 0 22.7681 3.4323 22.7681 7.65164V41.9216C27.3963 44.6342 30.233 49.5447 30.233 54.9476ZM27.247 54.9476C27.247 50.3643 24.7 46.2211 20.5986 44.1385L19.7821 43.7234V7.65303C19.7821 5.0791 17.689 2.98743 15.1165 2.98743C12.5442 2.98743 10.4509 5.0791 10.4509 7.65303V43.7234L9.63435 44.1385C5.53302 46.2227 2.98604 50.3657 2.98604 54.9476C2.98604 61.6361 8.428 67.0781 15.1165 67.0781C21.805 67.0781 27.247 61.6361 27.247 54.9476ZM24.7597 54.9476C24.7597 60.2641 20.4344 64.5894 15.1165 64.5894C9.79999 64.5894 5.47471 60.2641 5.47471 54.9476C5.47471 50.5896 8.41894 46.7631 12.635 45.642L13.1888 45.4942V12.3052H17.0453V45.4926L17.5991 45.642C21.8171 46.7631 24.7597 50.5912 24.7597 54.9476ZM15.5944 48.5205C15.3644 47.4992 14.3374 46.8274 13.2906 47.0662C9.63575 47.8932 7.08272 51.0897 7.08272 54.8403C7.08272 55.9017 7.94713 56.7663 9.00876 56.7663C10.0704 56.7663 10.9348 55.9019 10.9348 54.8403C10.9348 52.9338 12.2815 51.2438 14.1401 50.8242C15.1732 50.5866 15.8271 49.5535 15.5944 48.5205Z" fill="white"/>
</svg>
